<?xml version="1.0" encoding="UTF-8"?>
<svg xmlns="http://www.w3.org/2000/svg" viewBox="0 0 274.33 170.58">
  <defs>
    <style>.cls-1{fill:#006d33;}.cls-2{fill:#194928;}.cls-3{fill:#fff;}</style>
  </defs>
  <g>
    <polygon class="cls-1" points="148.09 69.9 226.82 69.9 192.59 66.99 173.99 42.07 168.23 49.09 133.85 0 99.47 49.09 93.71 42.07 75.11 66.99 40.88 69.9 119.61 69.9 133.85 106.7 148.09 69.9"></polygon>
    <polygon class="cls-2" points="111.88 49.95 118.18 66.2 80.3 66.2 93.83 48.07 98.04 53.2 94.11 61.03 117.55 35.69 106.45 45.54 132.09 8.95 132.09 54.26 113.6 44.16 99.16 59.67 111.88 49.95"></polygon>
    <polygon class="cls-3" points="173.84 48.07 169.63 53.2 174 63.79 133.85 6.45 133.85 10.58 152.76 41.44 133.85 15.48 133.85 19.61 150.68 46.84 133.85 24.51 133.85 28.64 148.57 52.21 133.85 33.53 133.85 37.95 146.51 57.59 133.85 42.28 133.85 57.89 114.88 47.48 133.85 96.44 145.54 66.2 187.34 66.2 173.84 48.07"></polygon>
    <polygon class="cls-1" points="118.19 145.48 118.19 163.76 84.74 163.76 84.74 145.48 89.31 142.12 89.31 95.23 84.74 91.87 84.74 73.59 117.08 73.59 133.82 116.95 150.62 73.59 182.96 73.59 182.96 91.87 178.39 95.23 178.39 142.12 182.96 145.48 182.96 163.76 149.5 163.76 149.5 145.48 154.07 142.12 154.07 119.01 133.82 170.59 113.63 119.01 113.63 142.12 118.19 145.48"></polygon>
    <path class="cls-1" d="M16.65,73.59H61.81A16.66,16.66,0,0,1,78.46,90.24v13.25H51.55V95.23H30.61a3.69,3.69,0,0,0-3.7,3.7v39.49a3.69,3.69,0,0,0,3.7,3.7H51.55V131.21H38.12v-21.5H78.46v37.4a16.66,16.66,0,0,1-16.65,16.65H16.65A16.65,16.65,0,0,1,0,147.11V90.24A16.65,16.65,0,0,1,16.65,73.59"></path>
    <path class="cls-1" d="M205.89,73.59h45.16A16.65,16.65,0,0,1,267.7,90.24v13.25H240.79V95.23H219.85a3.7,3.7,0,0,0-3.7,3.7v39.49a3.7,3.7,0,0,0,3.7,3.7h20.94V131.21H227.36v-21.5H267.7v37.4a16.65,16.65,0,0,1-16.65,16.65H205.89a16.66,16.66,0,0,1-16.65-16.65V90.24a16.66,16.66,0,0,1,16.65-16.65"></path>
    <polygon class="cls-1" points="265.9 78.89 265.9 74.49 264.33 74.49 264.33 73.59 268.54 73.59 268.54 74.49 266.97 74.49 266.97 78.89 265.9 78.89"></polygon>
    <polygon class="cls-1" points="269.22 78.89 269.22 73.59 270.82 73.59 271.78 77.21 272.73 73.59 274.33 73.59 274.33 78.89 273.34 78.89 273.34 74.72 272.29 78.89 271.26 78.89 270.21 74.72 270.21 78.89 269.22 78.89"></polygon>
  </g>
</svg>
