<?xml version="1.0" encoding="utf-8"?>
<!-- Generator: Adobe Illustrator 25.2.0, SVG Export Plug-In . SVG Version: 6.00 Build 0)  -->
<svg version="1.1" id="Layer_1" xmlns="http://www.w3.org/2000/svg" xmlns:xlink="http://www.w3.org/1999/xlink" x="0px" y="0px"
	 viewBox="0 0 600 400" style="enable-background:new 0 0 600 400;" xml:space="preserve">
<style type="text/css">
	.st0{fill:#DAA900;}
	.st1{fill:#939598;}
</style>
<g>
	<polygon points="140.1,209.4 140.1,248.4 135.4,248.4 135.4,230.2 114.1,230.2 114.1,248.4 109.3,248.4 109.3,209.4 114.1,209.4 
		114.1,225.6 135.4,225.6 135.4,209.4 	"/>
	<polygon points="168.9,231.5 168.9,248.4 164.1,248.4 164.1,231.5 150.6,209.4 156.1,209.4 166.5,227.2 177,209.4 182.4,209.4 	"/>
	<path d="M197.6,214v29.8h9.7c7.2,0,12.8-4.4,12.8-14.9c0-10.7-5.7-14.9-12.8-14.9H197.6z M192.8,209.4h14.4
		c10.8,0,17.7,7.4,17.7,19.4c0,12.1-6.9,19.5-17.7,19.5h-14.4V209.4"/>
	<path d="M254.7,228.4c4.6,0,7.6-2.8,7.6-7.2c0-5.1-3-7.2-7.8-7.2h-12.5v14.4H254.7z M266.8,248.4h-4.8c-0.4-1.1-0.7-2.4-0.7-4.2
		v-5.3c0-3.8-2-5.8-6.4-5.8h-12.7v15.4h-4.8v-39h17.2c8,0,12.6,4.8,12.6,11.8c0,4.1-2,7.5-5.3,9.4c2.6,1.6,4.1,4.3,4.1,8.2v4.8
		C265.9,245.1,266.3,247.3,266.8,248.4"/>
	<path d="M311.9,228.7c0-9-6.4-15.7-14.6-15.7c-8,0-14.6,6.9-14.6,15.7c0,8.9,6.6,15.7,14.6,15.7
		C305.3,244.4,311.9,237.5,311.9,228.7z M316.6,228.7c0,11.3-8.6,20.3-19.3,20.3c-10.7,0-19.3-8.9-19.3-20.3
		c0-11.3,8.6-20.3,19.3-20.3C308.1,208.5,316.6,217.2,316.6,228.7"/>
	<path d="M333.7,214v14.5h11.6c4.6,0,7.8-2.1,7.8-7.2c0-5.1-3.3-7.2-7.8-7.2H333.7z M333.7,248.4h-4.8v-39h16.4
		c8,0,12.5,4.9,12.5,11.8c0,6.9-4.5,11.8-12.5,11.8h-11.6V248.4"/>
	<path d="M400,228.7c0-9-6.4-15.7-14.6-15.7c-8,0-14.6,6.9-14.6,15.7c0,8.9,6.6,15.7,14.6,15.7C393.4,244.4,400,237.5,400,228.7z
		 M404.7,228.7c0,11.3-8.6,20.3-19.3,20.3c-10.7,0-19.3-8.9-19.3-20.3c0-11.3,8.6-20.3,19.3-20.3
		C396.2,208.5,404.7,217.2,404.7,228.7"/>
	<path d="M447.3,228.7c0-9-6.4-15.7-14.6-15.7c-8,0-14.6,6.9-14.6,15.7c0,8.9,6.6,15.7,14.6,15.7
		C440.7,244.4,447.3,237.5,447.3,228.7z M452,228.7c0,11.3-8.7,20.3-19.3,20.3c-10.7,0-19.3-8.9-19.3-20.3
		c0-11.3,8.7-20.3,19.3-20.3C443.5,208.5,452,217.2,452,228.7"/>
	<polygon points="488.6,248.4 463.8,248.4 463.8,209.4 468.6,209.4 468.6,243.8 488.6,243.8 	"/>
	<path class="st0" d="M313.1,115.9l-0.2-0.4L313.1,115.9z"/>
	<path class="st0" d="M318,101.7c0.4-0.5,0.4,0.4,1,0c-0.1-0.8-1.2,0.2-1.6-0.7c0.6-0.2,0.2-1.1,0.3-1.3c0.2,0.4,1.1,0.7,1.3,0.7
		c-0.1-0.3,0.6-0.6,0.8-1c-1,0.7,0.1-0.9-0.9-0.4c-0.4-0.3-0.3-1.4,0.2-1.5c0.3,0.2,0.1,0.5,0,0.7c0.6,0.5,0.7-0.4,1.3-0.2
		c-0.4-1.4,1.2-4.1-0.7-4.1c-0.4,0.1-0.2,0.6-0.3,1c0.8-0.8,0.8,0.4,1,0.6c-0.4,0.3-0.4,1.2-0.8,0.8l-0.2-0.9
		c-1.3,1.9-2.8,4.6-3.7,7.1l0.5-1c0.3,0.3,0.2,0.8,0.2,1.3l1.2,0c-0.2,0.3-0.2,0.6-0.5,0.4c0.3,0.6,0.6,0.5,1,0.5
		c-0.2,0.8-0.6,0.8-0.2,1.7c1.4-0.9-0.2-1.4,1.2-2.5L318,101.7z"/>
	<polygon class="st0" points="317.2,104.7 316.9,104.1 316.9,104.7 	"/>
	<path class="st0" d="M315.3,103.2l0.5,0.4C316.2,103,315.8,103,315.3,103.2z"/>
	<path class="st0" d="M321,97.3l0.2-0.8l-0.4,0.4C321,97,321,97.2,321,97.3z"/>
	<path class="st0" d="M321.3,90.7c-0.5,1.1-0.3,1.8-1.4,2.7c0.3,0.9,1.3,0.4,1.7,1c0.5-0.5-0.6-1-0.5-1.7c0.7,0.1,0.4-0.9,0.8-1.4
		C321.7,91.1,321.5,91,321.3,90.7z"/>
	<path class="st0" d="M325.4,88.5c0.3-0.4,0.2-1.1,0.6-1.3c0.3,0.3,0.3,0.6,0,0.8c0.9,0.3,0.2-0.6,1-0.7c-0.1,0-0.4,0.1-0.4-0.1
		c0.9-1.1-0.2-1.1,1.2-2.3c-0.1-0.4,0.1-0.6-0.4-0.9c1.2-0.5,0.9,0,2.1-0.8c-0.3-0.1-1.2-0.2-1.8-0.6c1.8-1,0.9-1.6,2.1-2.2
		c0,0.1,0,0.4-0.2,0.6c0.9,0.4,0.4-0.9,0.9-1.3l0.7,0.5c0.2-0.6,0.3-1.7,1.2-2l0.3,0.4c-3.6,0.4,1.4,1.7,1.5,2.2l0.2,0.8
		c1.8,0.5-1.2-1.3,0.6-1.6c-0.8,1.4,1,0.1,1.5,1.2c0,0.8-1-0.3-1,0.6c0.7-0.5,0.6,0.1,1.1,0.3c-0.6,0.6,0.8,0.8,0.1,1.3
		c-0.1-4.2-0.1,0.2-0.1-0.1c-0.5,0-0.8,0.4-1,0.8c0.6-0.8,0.8,0.9,1.7,0.2c2.2-1.7-1.4-4.7-2.6-5.5c-0.8,0.7-1.1-0.8-1.8-0.3
		l0.4-0.9c-1.2-0.6-0.1,0.7-0.6,0.8c-0.6-0.2-0.6-1-0.3-1.3c-0.7-0.6-0.3,0.2-1,0.3c-0.2-0.1-0.8-0.1-1.2-0.2
		c-1.3,2.7-2.8,6.5-5.2,9l0.8,0.2c-1.2,1.1,0,3-2.1,3.3l0.3,0.7c-0.2-0.4-1.1-0.3-1.3-0.9c0,0.5-0.4,0.7-0.4,1.2l0.7-0.5
		c0.3,0.8-0.3,1.1-0.9,1c0.1,1.4,1.4,0,2.1,0.1c-0.4-2.1,2-0.7,2.3-2.3C326.5,88,325.7,88.7,325.4,88.5z"/>
	<path class="st0" d="M322.6,89.1l0,0.3L322.6,89.1z"/>
	<path class="st0" d="M335.6,84l-0.2,0.4C335.5,84.6,335.5,84.4,335.6,84z"/>
	<polygon class="st0" points="322,91.2 322,91.2 322,91.2 	"/>
	<polygon class="st0" points="323.2,92.8 323.4,92.4 323.1,92.3 	"/>
	<path class="st0" d="M332.2,87.2l0.3,0.2L332.2,87.2z"/>
	<path class="st0" d="M325.3,97.5l0.2-0.2L325.3,97.5z"/>
	<path class="st0" d="M318.3,112.6l-0.9,0.4l0.5,0.2C317.9,112.9,318,112.7,318.3,112.6z"/>
	<polygon class="st0" points="317.9,113.2 318,113.7 318.1,113.2 	"/>
	<path class="st0" d="M284.1,114.3l-0.4-0.2L284.1,114.3z"/>
	<path class="st0" d="M276.8,100.8c-0.2-0.6,0.6-0.1,0.6-0.8c-0.7-0.4-0.5,1.1-1.5,0.9c0.2-0.5-0.8-0.8-0.9-1
		c0.5,0.1,1.2-0.5,1.3-0.7c-0.3-0.1-0.2-0.8-0.4-1.2c0,1.2-0.7-0.6-0.8,0.5c-0.5,0.2-1.3-0.5-1.2-1c0.4-0.2,0.4,0.2,0.6,0.4
		c0.8-0.2,0-0.8,0.6-1.2c-1.4-0.4-2.9-3.2-3.9-1.6c-0.1,0.5,0.4,0.5,0.6,0.8c-0.2-1.1,0.8-0.4,1.1-0.5c0,0.5,0.8,0.9,0.2,1.1
		l-0.9-0.3c0.8,2.1,2.5,4.7,3.8,7l-0.4-1c0.5-0.1,0.7,0.4,1.1,0.7l0.7-1c0.1,0.3,0.3,0.5,0,0.7c0.6,0.2,0.8-0.1,1-0.5
		c0.5,0.7,0.2,1,1.1,1.3c0.2-1.7-1.2-0.8-1.1-2.6L276.8,100.8z"/>
	<polygon class="st0" points="278.6,103.4 278,103.3 278.4,103.7 	"/>
	<path class="st0" d="M276.2,103.9c0.2-0.1,0.4,0,0.6-0.1C276.7,103.2,276.4,103.4,276.2,103.9z"/>
	<path class="st0" d="M274.7,95.9l-0.6-0.6l0.1,0.6C274.4,95.7,274.6,95.8,274.7,95.9z"/>
	<path class="st0" d="M269.4,92.1c0.7,1,1.3,1.1,1.5,2.6c0.9,0.2,1-0.9,1.7-1c-0.2-0.7-1.2,0-1.7-0.5c0.4-0.5-0.6-0.8-0.8-1.4
		C269.9,92,269.7,92.1,269.4,92.1z"/>
	<path class="st0" d="M269.4,87.4c-0.3-0.5-1-0.7-1-1.2c0.4-0.2,0.7,0,0.7,0.4c0.6-0.6-0.4-0.4-0.2-1.2c-0.1,0.1-0.1,0.4-0.3,0.3
		c-0.6-1.3-1-0.3-1.6-2.1c-0.3-0.1-0.5-0.3-1,0c0.1-1.3,0.3-0.8,0.2-2.3c-0.3,0.2-0.7,1-1.3,1.4c-0.1-2.1-1.1-1.5-1.1-2.9
		c0.1,0.1,0.3,0.1,0.4,0.4c0.8-0.7-0.7-0.7-0.8-1.4l0.8-0.4c-0.4-0.4-1.5-1-1.3-1.9l0.4-0.1c-5.7-0.2-3.8,1.8-5.7,2.4l-0.9,0
		c-1,1.6,1.6-0.8,1.3,1c-1.1-1.2-0.4,1-1.6,1c-0.8-0.2,0.6-0.9-0.2-1.1c0.3,0.8-0.3,0.5-0.6,1c-0.4-0.7-1,0.6-1.2-0.3
		c-0.4,5,1.2,1.7,1.7,3c-0.2,0.5,0.2,0.9,0.6,1.1c-0.6-0.8,1.1-0.5,0.7-1.6c-2.8-1.4,0-1.3,2-3c-0.5-1,1.1-0.8,0.8-1.7l0.8,0.6
		c0.9-1-0.6-0.3-0.6-0.8c0.4-0.5,1.1-0.2,1.3,0.1c0.8-0.5-0.1-0.3,0-1.1c0,0.4-0.4,0.8-0.5,1.2c1.9,2.3,4.7,5.2,6,8.4l0.5-0.6
		c0.5,1.5,2.8,1.3,2.2,3.3l0.8,0.1c-0.4,0-0.8,0.8-1.4,0.7c0.4,0.2,0.4,0.8,0.8,1l-0.1-0.8c0.8,0.2,0.7,0.9,0.4,1.3
		c1.2,0.6,0.8-1.2,1.2-1.8c-1.9-0.7,0.3-2.1-1-3.1C269.4,86.3,269.7,87.3,269.4,87.4z"/>
	<path class="st0" d="M268.7,90.2l0.3,0.1L268.7,90.2z"/>
	<path class="st0" d="M256.6,84.6l0.3,0.3C257.2,85,256.9,84.9,256.6,84.6z"/>
	<polygon class="st0" points="270.1,91.8 270.1,91.8 270.1,91.8 	"/>
	<polygon class="st0" points="272,91.5 271.8,91.2 271.6,91.4 	"/>
	<path class="st0" d="M258.5,88.8l0.3-0.2L258.5,88.8z"/>
	<path class="st0" d="M264.9,99.2l-0.1-0.2L264.9,99.2z"/>
	<path class="st0" d="M273.3,113.3l-0.3,0.9l0.5-0.3C273.3,113.8,273.2,113.6,273.3,113.3z"/>
	<polygon class="st0" points="273.5,114 273.9,114.2 273.6,113.9 	"/>
	<path class="st0" d="M266.3,150l0.4-0.2C266.4,150,266.2,150.1,266.3,150z"/>
	<path class="st0" d="M272,147.6c-1.4,0.7-3.9,1.4-5.3,2.1C267.8,148.8,271.4,147.2,272,147.6z"/>
	<path class="st0" d="M265.4,149.1c0.7-0.3,1.3-0.7,1.9-0.9C266.3,149,266.4,148.6,265.4,149.1z"/>
	<polygon class="st0" points="266.4,149.3 266.5,149.6 265.4,150 	"/>
	<path class="st0" d="M351.8,154.9c-0.2,0-0.4,0-0.4-0.2L351.8,154.9z"/>
	<path class="st0" d="M355.5,152.8l0.5-0.7L355.5,152.8z"/>
	<path class="st0" d="M348.7,157l0.6-0.4L348.7,157z"/>
	<path class="st0" d="M299.2,165.3c-0.7-0.2-1.5-0.5-2-0.6C298.7,164.5,298.8,165,299.2,165.3z"/>
	<path class="st0" d="M345,136.4l-0.3,0.1C344.5,136.4,344.4,136.3,345,136.4z"/>
	<polygon class="st0" points="359.4,153.2 359.1,153 359.3,152.7 	"/>
	<path class="st0" d="M346,158.7L346,158.7l-0.7,0.2C345.7,158.7,345.9,158.7,346,158.7z"/>
	<path class="st0" d="M338.6,134.1l-0.7-0.7C338.5,133.7,338.7,134,338.6,134.1z"/>
	<polygon class="st0" points="356,152 356,152 356,152.1 	"/>
	<path class="st0" d="M353.8,159.2l1-0.6C354.5,158.9,354.1,159.1,353.8,159.2z"/>
	<path class="st0" d="M299.2,165.3l0.6,0.2C299.6,165.5,299.4,165.4,299.2,165.3z"/>
	<path class="st0" d="M263.3,154c0,0.6-0.2,0.7-0.4,0.8L263.3,154z"/>
	<path class="st0" d="M234.1,140.2l-0.2,0.1L234.1,140.2z"/>
	<path class="st0" d="M258.2,135.7l0.4,0.1C258.3,135.9,258.2,135.8,258.2,135.7z"/>
	<path class="st0" d="M290.9,128.4l0.1-0.1l1.4,0.2l-0.1,0.1L290.9,128.4z M264.1,130.6c-1.7,0.6-1.5-0.3-2.6-0.2
		C262.9,129.9,262.8,130.6,264.1,130.6 M303.5,130.2c-1.8,0.1,0.8,0.7-0.4,0.8l0.9,0c-1.5,0.3-1-0.5-2.1-0.5l0.7,0
		c0.6-0.4-1.1-0.3-1.2-0.7C302.3,129.8,304.2,130.2,303.5,130.2 M265.8,130.7c-1,0.4-1.1,0.3-1.9,0.3
		C264.1,130.8,265,130.6,265.8,130.7 M294.7,130.2c0.1,0.3-1.6,0.3-2,0.1c0.1,0.4,1.3,0.4,2.2,0.4c0.1,0,0.3,0.1,0.6,0.1l-0.6-0.1
		c-0.3-0.1-0.1-0.3-0.1-0.4l0.5-0.1L294,130L294.7,130.2 M311.1,132l-0.9-0.6l-1.5-0.1L311.1,132 M338.7,136.9l0.7,0.2
		c0.8,0.4,0.5,0.9,2,1c-0.3-0.3-0.9-0.2-1.2-0.5c0.2-0.3,0-0.3-0.8-0.5L338.7,136.9 M338.2,137.6c-0.5-0.4-3.2-0.6-3.4-1.3
		C333.7,136.9,336.9,137.3,338.2,137.6 M286.1,131.4c-0.5,0.1,0.6,0.6,1.7,0.5l-0.6,0.6c0-0.4-2.1-0.4-2.4-0.4
		C284.4,131.5,285.3,131.8,286.1,131.4 M245.2,136.1c-0.2-0.1,0-0.3-0.3-0.4l-0.7,0C243.3,136.2,244.4,136.2,245.2,136.1
		 M254.5,134.8c0.3-0.1,0.5-0.2,0.6-0.3l0.1,0.1C254.9,134.8,254.7,134.8,254.5,134.8l-1,0.3c-0.2,0.4,1.3,0.4,1.7,0.6
		c-0.7,0-1.3-0.3-2.2,0.1c0.1,0.1,0,0.2,0.6,0.1l-1.2,0.3c-1.5-0.3-0.2-0.7,1.1-1.1c0-0.1,0.1-0.2,0.4-0.3
		C254,134.7,254.2,134.7,254.5,134.8 M246.4,136.4c0.3,0,0.4,0.1,0.5,0.3c0.5,0.1,1.3,0,2.1-0.3c-0.2-0.3-0.7,0-1.2,0
		c0.3-0.1,0.9-0.4,1.6-0.4c-0.7,0.7-0.1,0.6-0.1,1c-2,0.7-2.1,0.1-2.4-0.3C246.6,136.6,246.4,136.5,246.4,136.4 M245.6,137l0.9,0.5
		l-0.9,0.2L245.6,137 M259.8,135.1c-0.3,0.1-1.9,0.1-1.5-0.3L259.8,135.1 M257.2,134.1l-0.7,0l0.8,0.6L257.2,134.1 M271.7,132.6
		l2.2,0.1c-0.4,0.7-2,0.1-3,0.2C270.5,132.7,271.4,132.9,271.7,132.6 M292.8,132.2c0.1,0.3-2.4,0.8-3,0.3
		C291.1,132.4,292.5,132.5,292.8,132.2 M341.3,138.5l-1.8-0.6l1.9,0.6L341.3,138.5 M355.7,146c-1.6-0.1,0.8,2.8,0.1,3.4
		c0.2,0,1.6,1,0.5-1.8c1.4,2.3-0.4,1.6,1,3c0-1.3-0.3-2.8-0.4-3.1l0.6,1.5C357.9,147.9,356.1,146.9,355.7,146 M334.4,163.3l0.5,0.3
		l-0.7-0.3L334.4,163.3l-0.1-0.1c1.1-0.1,2.1-0.3,3.1-0.5C336.4,163,335.5,163.2,334.4,163.3 M330,163.8l2.9,0.1l-1-0.2l1.9,0
		C333.5,163.4,331.6,163.2,330,163.8 M330.3,164.5c0.6-0.1,0.8-0.1,0.9,0c0.5,0,0.9,0.1,0.8,0.4c-1.2,0-0.5-0.3-0.8-0.4L330.3,164.5
		 M309.9,166.7c-0.1,0.1,0,0.2,0.1,0.3l0.5,0.2L310,167c-0.6-0.1-1.5-0.1-1.9,0.1c0.3,0.2,1.2,0.2,1.6,0.4c-1.4,0.5-4.6-1.1-3.7,0.5
		c-0.6-0.2-2.6-0.6-1.9-0.9C305.6,167.1,308.7,166.9,309.9,166.7c0.1-0.1,0.2-0.1,0.5-0.2L309.9,166.7 M293.5,166.3l0.8,0.1l0.4-0.2
		L293.5,166.3 M278.8,164.8l0.8-0.3l-1.4-0.3L278.8,164.8 M327.6,166.6c0.9-0.2,3.4-0.7,3-0.6C330.5,166.4,328.2,166.7,327.6,166.6
		 M341.5,164.1l-2.2,0.6C340,164.3,341.3,163.8,341.5,164.1 M327.2,167.2l0.8,0.1C327.2,167.4,327.1,167.4,327.2,167.2l-0.7-0.1
		C328.2,166.7,327.3,167,327.2,167.2 M343.1,163.8l0.7-0.3c0.8-0.6,0.7-1.4,2.2-1.1l-2.2,1.1L343.1,163.8 M340.3,163.2
		c0.7-0.3,0.3-0.6,1.6-0.7c-0.1,0.3,0.7,1.2,2.4,0.2c-1.6,0-1.8-0.4-3.7-0.1L340.3,163.2 M340.9,163.8c-1.4,0.1-3.8,0.3-3.6-0.1
		c0.1,0.7,2,0.4,2.6,0.3C340.2,163.8,340.4,163.8,340.9,163.8 M318.2,132.1c0.9,0.3,2.1,1.3,4.1,1.1l-1.4-0.4l0.3,0l-0.3-0.4
		C321.2,133.4,319,132.3,318.2,132.1 M353.4,158.6c-0.9,0-2.5,1.1-3.8,1.6c-0.1,0.6,1.3,0.4,2.7-0.5
		C354.1,159,352.5,158.8,353.4,158.6 M358.5,153.7l0.2-0.4l-1.1,1.3L358.5,153.7 M334.6,134.4c0.1-0.4-1.6-0.8-2-1.2
		c-0.7-0.1,0.2,0.5,0.4,0.7c-0.4,0-0.6-0.1-1-0.3C332.1,134.5,333.3,133.7,334.6,134.4 M306.8,130.2l0.3,0.1L306.8,130.2
		c-1.1-0.4-1.6,0.3-2.4-0.4C305.5,129.2,306.2,129.9,306.8,130.2 M322.2,135.1l1.4,0.4l0.1-0.1l-1.4-0.4L322.2,135.1 M335,137.5
		l0.6,0.4l0.6-0.3L335,137.5 M294.9,167.7l1.7,0.2c-0.3,0-1.5-0.2-1.1,0.1C295.3,167.9,294.7,167.9,294.9,167.7 M337.1,134.1l1,0.3
		l0.6,0.2l-0.6-0.2C337.6,134.3,337.2,134.4,337.1,134.1 M280.6,128.6c-1.6,0.4-3.3-0.2-4.8-0.1l0.5,0.2l-1.4-0.2l0,0.4
		c-2.4-0.1-5.3,0.5-6.2-0.1l0.3,0.6l-2.6-0.2l1.5,0.3c-2.8,0.4-7.2,0.4-7.8,0.5l0.3,0.2c-0.4,0.2-0.8,0.1-1.3,0l0.4,0.3
		c-4.3,0.3-5.3,1.3-10.1,1.8c-1.3,0.3,0.7,0,0.8,0.2c-0.7,0.4-2.3,0.4-2.7,0.4c0.5,0.5,2.4-0.1,1,0.6c-1.1-0.1,0.8,0.4-1.1,0.6
		l-0.9-0.5c-1,0.3-0.1,0.6-1.8,0.8c-1.9,0,2.1-1.2-0.9-0.7c-1.5,0.3-2.8,2.4-5.8,2.7c-2.4,1,1.6,0.7-1.9,1.5l2.3-0.2
		c-0.5,0.3-0.1,0.6-1.6,0.8c-0.5-0.1-1.5-0.2-2.4,0c3.3-0.4-2.5,1.5,0.6,1.4l-1.1,0.3c0.1,0,0.2,0,0.1,0.1l-1.4,0.4
		c0.9-0.1,3.1-0.6,2.2,0.1l-2,0.7c0.7,0.2,0,0.6,0.2,0.8l6.3-1c-0.3-0.2-1.2-0.1-1-0.4c1.6-0.6,1.4,0,2.9-0.7l-0.7-0.1
		c0.2,0.1,0.4,0.1,0.1,0.2c-0.5,0.3-0.8,0.2-0.8,0c0.4-0.5,2-0.7,2.6-0.6c2-0.6,0.2-0.8,0.7-1c1.2,0.3,3.4-0.7,4.7-0.6l-0.9-0.3
		c1.5-0.8,2.9-0.6,3.9-0.6l-0.4-0.3c2.2-0.3,3.1-1.7,4.9-0.8l-0.3-0.2c0.9-0.3,2.2-0.6,3.1-0.4c0-0.2,0.1-0.3,0.5-0.4
		c0.6,0.4,1.4,0,2.8-0.3c-0.9,0-0.7-0.7-1.6-0.7c2-0.9,2,0.5,3.7,0.3c1-0.4-1-0.2-1.2-0.4c2.7,0.1,5.4-2.1,7.2-1l-1.1,0.5
		c1.1,0.1,1.7,0.2,1.5,0c-0.3,0.1-0.5-0.1-0.6-0.2c3.2-0.8,5.1,0.7,8.4,0.2c-0.2-0.2-0.7-0.3-0.8-0.5c1.5-0.3,1.5,1.1,3.9,0.5
		l-0.5-0.2c0.8-0.2,1.4,0.2,1.3,0.2c0-1.1,5.1,0,6.8-1.3c1.2,0.6,4.6,1.1,5.6,0.7c1.5-0.6-1.3-0.7-0.7-1.3c1.2,0,1.8,0.6,3.5,0.4
		c0,0.6-3.5,1.2-0.2,1.5l0.5-0.3c-0.3,0-0.8,0.2-1.3,0.1c-0.9-0.3,0.6-0.4,0.8-0.5l3.5,0.4c0.2,0.6-1.9,0.4-2.1,0.5
		c2.8,0,6.2-0.6,8.7-0.1l-0.2-0.2c3.2,0.7,2-1,4.6,0.2c1.4,0-0.4-0.7,1.7-0.5c0.6,0.1,0.2,0.3,0.1,0.3c2.5,0.6,1.2-0.4,3.5,0.4
		l-0.4-0.7c2.8,0.8,5.5,2.3,8,2.4c-0.1-0.5-1.6-0.7-2.1-1.1c3.2,1.2,7.8,1.6,10.7,2.6c-1,0.2,1.2,1.3-0.8,1.2
		c-0.3-0.7-1.3-0.5-2.3-0.8c1.3,1.7,7.1,0.7,7.2,2.1l0.5-0.4c0.4,0.2,1.4,0.9,0.6,0.8l3.2,0.6c-1-0.7-3.1-2.2-4-1.9
		c-0.8-0.8,1.4,0,0.8-0.8c1.9,1.4,1.4,0,3.6,0.9c-1.2,0.4,1.9,1.7,1.6,2c0.8,0.1,2.2,1,2.6,1.5c1.2,0.5,4.2,1.3,5.6,2.7
		c-0.5-0.6-1.4-1.5-1.1-1.9c0.8,0.7,1.6,1.4,2.1,1c-2.5-2.9-1.6,0.4-4.2-1.8c-0.5-0.9-1.3-1.4-2.8-2.3c0.9,0,0.6-0.3,1.1-0.6
		c1.5,2,5.1,2.5,7,4.8c0.5,1.1-0.4,1.1,1,2.9c-0.4-0.5-1.1-0.8-1.7-1.2c1.9,1.2,0.2,0.6,1.1,1.9l0-0.8c0.7,0.7,0.9,1.1,0.7,1.7
		c0.1-0.3,0.3-0.6,0.3-1c0.3,0.4,0.7,1.3,0.4,1.4l0.4,0.1c-0.1,0.1-0.2,0.3-0.1,0.9c0-0.3,0-0.5,0.2-0.6c-0.2,2.2,0.7,0.6,0.4,2.1
		c0.2-0.2,0.3,0.3,0,0.9c-0.8-0.4-2.9,2-4.2,2l0,0l-2.2,0.9c0.5-0.2,0.2,0.3-0.4,0.8l0.1-0.1c-0.6,0.5,1.4,0.5-0.9,1.4l-1.3,0.3
		c0.2-0.1,0.1,0.2,0,0.3l-1.3,0.3c-1.5,1.6-3.7,0.9-5.8,1.9c0.6-0.3,1.7-0.5,1.3-0.1c-0.4,0.2-1.1,0.3-1.5,0.3l0.2,0.1l-4.5,0.6
		c0.4,0.2,2.9-0.4,1.9,0.3c-0.5,0.6-1.9,0.6-2.7,0.6c0-0.3,1.5-0.8-0.1-0.7c-0.2,0.2-1.5,0.7-0.8,0.8c-1.6,0-3.8,0.3-5.3,0
		c-0.4,0.2,0.3,0.2,0.5,0.2l0.1-0.1c0.9,0,0.3,0.7,2,0.1c0.3,0.8-2.6,0.7-4.1,1.1l2.6,0.2c-4.1,1.9-10.2,1.3-14.5,1.4
		c1.3-0.3,2.3-0.1,2.1-0.8c-2.7-0.2-2.3-0.1-5-0.1l0.2,0c-1.4,0.4-3.3-0.2-4.2,0.4c0.6,0.4,2-0.3,2,0.4l-3.4-0.1
		c1.1,0.5,3.4,0.1,4.7,0.1c0.9-0.1-1.9,0-1.4-0.5c3.1-0.1,3.9,0.3,5.5,1c1,0.5-1.3,0.6-1.9,0.6c-2.1-0.6-5-0.9-8.1-0.7l-1.7,0.6
		c-1.5-0.6-0.9-1.5-3.7-1.5l0.8,0.5c-0.6,0.1-1,0.2-1.3,0.1c1.2,0.4,2.5,0.8,3.6,1.1c-1.6,0.9-4.6-0.6-6.9-0.9
		c0.1,0.1,0.9,0.2,1.2,0.5c-3.5,0-7.1-1.3-9.7-1.9c-1.2,0.2,2.2,0.5,1.6,1.1c-1.4-0.4-3-0.1-3.4-0.7c0.5,0.8-3.3-0.4-0.7,0.7
		c-5.1-0.4-10.7-2.3-15.3-4.5c0.1,0.3,0.1,0.5-0.2,0.6c1.6,0.6,4.1,1.5,4.9,2.4c-1.2,0-2.5-1.3-2.9-1.2c0.5,0.4,1.6,0.7,1.6,1.1
		c-1.6,0-2.2-0.9-3.2-1.3l0.6,0c-2.9-1.8-1.2-1.9-4.3-3.3c-1.2-0.4-0.2,0.3-0.5,0.8c-0.5-0.7-3.3-1.9-3-3.3c0.4,0.7,0.7,1.3,1.4,1.7
		c-1-1-1.9-2.5-1.5-3.4c-0.1,0.1-0.3,0.2-0.3,0.5c0.1-1.3,0.5-2.7,1.4-2.8l-0.3-0.6c-0.5,0.7-1,2.5-1.2,3c-0.7-0.3,0.1-2.7,1-3.3
		c-2.7,3.3-2.3,5.5,0.6,7.7l-0.4-0.5c2.1,1.3,3.8,2.8,5.6,3.7c-0.6-0.1-0.8,0-0.6,0.2c4.3,1.3,8.3,2.5,13.1,3.1l1.3,0.9l0.2-0.5
		c2.4,0.1,0.4,0.7,1.9,0.9c-0.6-0.1-0.5-0.1-0.6-0.3c2.7,0.9,1.6-0.2,3.1,0.1c-0.7-0.6-2.9-0.6-2.1-1.1c2.6,0.9,6.9,1.2,7.2,2.2
		c5.1,0,11.4,0.9,15.7,0.9c0.6-0.2-0.4-0.2-0.1-0.3c1.7,0.7,5.7-0.7,5.7-0.1c0.8-0.2,1.1-0.6,1.3-0.8c1.1,0.2,2.4,0.3,3.8,0.3
		l-1-0.1l0.1-0.1l1.5,0.1l-0.1,0c3.5-0.3,7.4-0.6,10.6-0.7c-1.9,0,0.3-0.8-0.6-0.8c1.7,0.5,5.6,0.2,8.6-0.9
		c-0.1-0.2,0.1-0.4-0.3-0.5l1.9-0.1l-0.3-0.2c3.1-1,6.8-1.2,8.7-2.6c-1.3,0.5-1.4,0.3-1.6,0c2.2-0.9,4.2-1.8,6.8-3.2l-0.3,0
		c0.6-0.5,1.5-0.9,2.2-1.3l-0.2-0.4c1.3-0.9,2.6-2.5,3.7-4.5c0.2-0.7,1.1-5.9-1-7.8c-0.4-0.8,0.7,1.9-0.7-0.2
		c0.6-1.1-2.1-2.2-1.5-3.2c-0.6-0.4-1.2-0.6-1.9-0.9l-0.1-0.7c-1.9-0.1-1.9-1.7-4.3-2.5c0.1,0.1,0.3,0.3,0.1,0.3
		c-0.6-0.4-2.3-1.2-0.9-0.9c-1.2-0.6-5.1-2.3-3.5-1.1c0-0.4,1.5,0.5,2.2,0.9c-0.3,0.4-1.9-0.5-2.5-0.2c0-0.1-0.2-0.2-0.4-0.3
		l-0.3,0.2c-2-1.3-4.3-1.5-5.8-2.6c-0.1,0.1-0.5,0.1-1.3-0.1l0.1-0.6L335,133l0.9,1.1c-2.6-0.4-4.2-1.7-6.3-2.3
		c-0.7,0.9-4.1-1.3-6.1-0.6l1.6,0.5c-3.5-0.7-4.2-0.1-7.5-0.9c2.9,0,2.8,0.2,7.1,0c-4.2-0.1-7.1-1.5-10.9-1.4
		c0.2,0.3,1.2,0.5,0.2,0.7c-0.7-0.6-3.6-0.4-2.9-0.9c-1.2,0.1-1.4,0.6-2.2,0.7l-3.9-1l0.1,0.1c-6.8,0.8-12.5-1.5-19.3-0.9l0.1,0.3
		l-1.7-0.5c1.3,0.3-0.6,0.4-0.7,0.7l-4.3-0.5C279.2,128.2,279.5,128.8,280.6,128.6"/>
	<path class="st0" d="M262.3,134.9c-0.4,0.1-0.7,0.1-0.9,0.1L262.3,134.9z"/>
	<path class="st0" d="M342.6,141l0.4-0.1C343,141,342.9,141,342.6,141z"/>
	<polygon class="st0" points="345.5,142.4 345.7,142.4 345.7,142.5 	"/>
	<path class="st0" d="M263.8,154.8c0.6-0.5-0.2,0.5,0.3,0.9C263.8,155.3,263.4,155.2,263.8,154.8z"/>
	<path class="st0" d="M265.4,158.5c-0.2-0.3-0.5-0.7-0.9-1.1C264.7,157.6,265,157.9,265.4,158.5z"/>
	<path class="st0" d="M263.3,155.6c0.6,0.7,0.8,1.3,1.2,1.8C264,157,263.7,156.6,263.3,155.6z"/>
	<path class="st0" d="M276.7,163c-0.6-0.4-2-0.7-2-0.7c2.9,0.6-0.4-0.7-0.6-1C275.9,162,275.8,162.4,276.7,163z"/>
	<path class="st0" d="M280.6,164l-0.8-0.1L280.6,164z"/>
	<path class="st0" d="M281.8,163.9c1,0.3,1.3,0.7,1.7,1.1c-1.3,0-2-0.7-2.9-1C281.4,164.1,282.1,164.3,281.8,163.9z"/>
	<path class="st0" d="M313.9,164.2c-0.2,0-0.8,0-0.8-0.2l1.7-0.1C315.5,164,314.3,164.2,313.9,164.2z"/>
	<path class="st0" d="M320.4,164.7c1.4-0.1,0.6-0.5,1.3-0.5l0,0.7L320.4,164.7z"/>
	<polygon class="st0" points="319.9,168.2 319.5,168.1 320,168.1 	"/>
	<path class="st0" d="M327,163.4l-1-0.6C327.1,162.8,327.2,163.4,327,163.4z"/>
	<polygon class="st0" points="332.1,162 331.3,161.9 333.8,161.7 	"/>
	<polygon class="st0" points="338.3,160.9 338.5,160.7 340.2,160.4 	"/>
	<path class="st0" d="M315.6,134.7c-0.2-0.7,2.6,0,3.4-0.1C318.4,135.4,316.8,134.1,315.6,134.7z"/>
	<path class="st0" d="M264.7,134.3l2.7-0.2C265.4,134.6,266.8,134.2,264.7,134.3z"/>
	<path class="st0" d="M343.9,112.7c-1.5-3-5.2-4.2-8.3-2.7c-3,1.5-4.2,5.2-2.7,8.3c1.5,3,5.2,4.2,8.3,2.7
		C344.2,119.4,345.4,115.7,343.9,112.7z"/>
	<path class="st0" d="M259,112.7c-1.5-3-5.2-4.2-8.3-2.7c-3,1.5-4.2,5.2-2.7,8.3c1.5,3,5.2,4.2,8.3,2.7
		C259.3,119.4,260.5,115.7,259,112.7z"/>
	<path class="st0" d="M308.3,189.8C295.6,132.8,337.9,82,337.9,82l-6.4-4.7C284.3,145.5,308.3,189.8,308.3,189.8z"/>
	<polygon class="st0" points="302.4,168.2 302.6,167.7 302,167.5 	"/>
	<path class="st0" d="M304.3,165.5l-0.3-0.9c-1.7,0.6-1.2-0.1-2.4,1.5c0.3,0.5,1.1,1.6,1.7,1.4c-0.1-0.4-0.8-0.8-0.7-1.4
		c0.5,0.2,0.5,0.8,1.2,1c0.5-0.9-0.5-0.5-0.3-1.5H304.3z"/>
	<path class="st0" d="M302.6,164.5l0.8,0.1C303.1,164.5,302.7,164.1,302.6,164.5z"/>
	<path class="st0" d="M302.4,163.9c0-0.6,0.6,0,0.7-0.1l-1.1-0.6L302.4,163.9z"/>
	<path class="st0" d="M302.3,161.5l-0.1-0.3C302,161.3,302.2,161.4,302.3,161.5z"/>
	<path class="st0" d="M302.1,160.2c-0.4,0.2-0.1,0.6,0.1,0.9l0.1,0c0.3-0.3,1.1-0.1,0.9,0.5c0.2,0.6-0.6,0.5,0,1l0.6-0.7
		C303.6,161.1,302.5,160.6,302.1,160.2z"/>
	<path class="st0" d="M302.3,161.5l0.1,0.3C302.5,161.6,302.4,161.5,302.3,161.5z"/>
	<polygon class="st0" points="302.3,162.7 302.5,163 302.8,162.9 	"/>
	<path class="st0" d="M302.1,158.2c1.1,0.1-0.2,1.4,0.7,1.6c-0.1-0.8,0.7-1.4,1.3-1.2l-0.3-0.9C303.4,157.4,302.6,157.8,302.1,158.2
		z"/>
	<path class="st0" d="M304.9,156.5l-0.2-0.2L304.9,156.5z"/>
	<path class="st0" d="M303.2,152.1l1,2.1c-0.3-0.2-0.7-0.1-0.8-0.6c-0.2,0.9,0.5,1,0.4,1.8c-1,0.2,0-1.3-0.9-0.9
		c0,0.5,0,1.3,0.9,1.8L303,157l1.1-0.3c0.3-0.3-0.8-0.7-0.1-0.9c0.5-0.1,0.6,0.2,0.7,0.5c-0.2-0.5,0.9-1.4,0.8-2.5
		C305.4,152.7,303.7,152.9,303.2,152.1z"/>
	<polygon class="st0" points="304.4,152.1 304.8,152 304.2,152 	"/>
	<path class="st0" d="M303.1,149.8l0.6,1.1l-0.6,0.2c0.3,0,0.7,0.3,0.9,0.3c1-0.4-0.2-1.3-0.3-1.9c0.6-1.5,0.5,0.1,1.5-0.4
		c-0.1,0.4-0.3,0.4-0.4,1c1.2-0.8,0.3-2,0.1-2.7c-0.1,0.2-0.4,0.2-0.4,0.5l-0.3-0.6C303.4,147.8,303.2,148.3,303.1,149.8z"/>
	<path class="st0" d="M302.9,151.7c-0.1-0.4,0-0.5,0.2-0.6C302.9,151.2,302.6,151.3,302.9,151.7z"/>
	<path class="st0" d="M304.9,147.1l0,0.3L304.9,147.1z"/>
	<path class="st0" d="M303.7,147.6l0.2-0.7l-0.5,0.2C303.4,147.2,303.5,147.5,303.7,147.6z"/>
	<path class="st0" d="M311.6,120.3c-0.4-0.1-0.7,0.1-0.8,0.7c-0.5-0.2-0.1-0.9-0.3-1.3c-0.6,0.6-0.6-0.2-1.2-0.2
		c-0.3,0.8,0.2,1.4-0.3,2.2c-0.1-0.1-0.4-0.2-0.6-0.1c-0.1,1.1-0.2,3.1-0.9,4c-0.5,0.9-0.4,1.8-0.5,2.9c-1.4,3.5-1.7,7.4-2.9,11.3
		l0.9,0.7c-0.6,0.1-0.2,0.9-0.8,0.7c0.2-0.2,0.1-0.4,0.1-0.7c-1,0.7-0.4,2.2-0.8,3.2c0.2-0.1,1.1-0.1,1.3,0.2
		c-1.2-0.2-0.1,1.2-1.5,1.3c-0.4,1,1,0.2,0.7,1.2c0.7,0.2,0.4-1,1-1.1c0.5,0.4-0.3,0.9,0.4,1c0.4-1.6-0.5-4.9-0.3-7.6l0.6,0.4
		c-0.2-1.4,0.2-3.5,1.4-4.3c-0.7,0.1,0.8-1.8-0.6-2c0.4-0.3,0.4-0.4,0.6-0.8l-0.4-0.2c0.2-0.7,0.8-0.4,1-1.1
		c-0.7,0.3-0.7-0.2-1.2-0.6c0.9-0.7,1.7-1.6,2.5-2.2c-0.2,0-0.4,0-0.8,0.2c0.3-0.5-0.2-0.5-0.4-0.7c0.1-0.5,0.8-0.2,1.2-0.1
		c0.5-0.9-0.8-1.7-0.2-2.2l-0.7,0.1c0.1-1,1-1.6,1.2-2.7c1-0.2,0.4,1.1,0.6,1.6c0.2-0.2,0.5-0.6,0.8-0.6c-0.3-0.6-0.5-1.5-0.7-2.2
		C311,121.9,311.5,120.6,311.6,120.3z"/>
	<polygon class="st0" points="311,123.3 311.2,123.7 311.3,123.3 	"/>
	<path class="st0" d="M311.6,120.3l0.1,0C311.7,120.2,311.7,120.2,311.6,120.3z"/>
	<polygon class="st0" points="307.6,125.6 307.7,125.5 307.7,125.3 	"/>
	<path class="st0" d="M310.1,127.2l-0.9,0.6C309.5,127.8,309.7,127.8,310.1,127.2z"/>
	<path class="st0" d="M307.6,133.4c0.1,0.2,0.3,0.2,0.4,0.3C308.2,133.3,308,133.1,307.6,133.4z"/>
	<polygon class="st0" points="311.6,122.2 311.7,121.4 311.6,121 	"/>
	<path class="st0" d="M314.9,105.3c-1,0.4-1,1.6-1.5,2.3c-0.3,1.7,1.4,0.9,0.8,2.3l-1.3-0.9c-0.5,1.5-1.9,3.4-1,5.2
		c-0.2,0-0.5,0.2-0.6-0.2c-0.3,1,1.8,1.3,0.9,2.5c-0.4-1.6-1,0.1-1.7-0.6l0-0.2c-0.2,0.9-0.1,2.2-0.4,2.7c0.4,0.2,1.1-0.1,0.9,0.6
		c0.2-0.3,0.6,0,0.9,0.2c-0.1-0.9,0.3-1.2,0-1.9c0.6-0.2,0,0.3,0.7,0.1l-0.2-0.8c0.3-0.4,0.3,0.6,0.7,0c-0.2-0.2-0.3-0.9-0.1-1.4
		l0.1,0.2c0-0.5,0.4-1-0.5-1.1l1-0.2l-0.6-0.1c0.6-1.1,2.2-0.9,2.1-2.7c-0.3,0.3-0.5-0.2-0.5-0.4c-0.6,0.4,0.1,0.9-0.1,1.5
		c-0.6-0.1-0.8-1.4-1.4-0.8c1-0.5,0.6-1.5,2-1.2c0.5-0.9,0-1.5,0.7-2.3l0.2,0.1c-0.8-0.6,0.7-0.6,0.2-1.7l-0.4,0.4
		c-0.3-0.2-0.2-0.4-0.2-0.8c0.1,0.1,0.1,0.1,0.3,0.1c-0.6-0.4-0.2-1.5-0.3-1.7c-0.3,0.4,0,1.2-0.1,1.8
		C315.2,105.9,314.6,105.7,314.9,105.3z"/>
	<path class="st0" d="M313.3,124.7c0,0.8-0.2,1.9,0.2,2.7l-0.3-0.2c0,0.5,0.2,2,1.1,1.4l-0.2-0.3c-0.2-1.1,0.9-0.5,1.4-1.1
		c0.1-1-1-2-0.4-2.6c0.1-0.4,0.4-0.2,0.7,0c0.4-0.8-0.5-1.5-0.5-2.1c2.8,0.9,0.3-2.7,2.5-3.2c0.1-0.8,0.7-1.7,0.6-2.9
		c0.5,0.8,0.4-0.9,1.1-0.3c-1.5-1,1.9-2.3,0-3.4c1.1-1-0.1-0.1,1-1.3c0.2,0.1,0.1,0.3,0.1,0.5c0.7-0.4-0.4-1.3,0.7-1.3
		c0.7-1.1-0.4-0.5-0.6-1.4c0.8-1.1,0.9-0.6,2-0.9c-0.9-0.6-0.1-1-0.2-1.9c-0.1,0.1-0.7,0.8-0.8,0.1c0.9-1.3,0-1.4,0.4-2.8
		c1.3-0.1-0.7,1.3,0.7,0.6c0,1.1-0.3,1.6,0.1,2.4c0.6-1,1.2-2.4,1.4-3.8c0.5-0.6,0.3,0.6,0.7,0.1c1.1-0.9,0-2.4,0.9-3l0.4,0.5
		c-0.3-0.9,1.3-1.9,1.6-3.2c-0.3,0-0.5,0-0.6-0.3c1.2,0.8,0.2-1.9,1.8-2.4c-0.8-0.4-0.6-1.7-0.3-2.4c0.4-0.1,0.6,0.2,0.8,0.3
		c-1.1,0.7,0.2,1.5,0.1,2.6c0-0.9,1.2-1.8,1-2.7l0.5,0.6c0.7-0.9-0.8-1.7,0.4-2.3l0.4,0.4c1.3-2,3.6-3.7,3.7-5.9
		c-0.3-0.4-1.6-0.2-2-0.4c-0.4,1.1-0.1,2.1-0.3,3l-0.7-0.5c0.4,0.5,0,1.5,0.7,1.3c0,0.8-0.9,0-1,0.9c-0.7-0.5-0.5-1-1.1-1.4l0,0.8
		c-0.2-0.4-0.5,0.2-0.6-0.2c0.1,1.7-1.3,1.3-1.7,2.7l0.5-0.6c0.4,0.3,0.1,0.6,0.1,1c-0.8-0.1-0.8,0.2-1.4,0.6c0,0.7,0.6,1.5,0.1,2.1
		c-0.7-0.6-1.1,0.9-1.9,0.6c0.7,0.6-0.5,1.5-0.1,1.9c-0.1,0.5-0.4,0.9-0.9,0.7l0-0.4l-0.2,0.4l-0.1-0.2c-0.2,0.3,0.4,0.7-0.3,0.9
		c-0.2-0.1-0.1-0.4,0-0.6c-0.7,0.8,0.3,2.2-0.9,2.6c0.3,0.4-0.2,1.4,0.7,1.7c-0.5,0.1-1.1-0.4-1.4,0.5c0.5,0.8-0.7,0.7-0.6,1.5
		c-0.4-1.2-0.2-0.1-0.6-1.2c-0.6,0.4,0,1.7-0.6,2.5l-0.7-0.1c0.1,0.5,0.5,1.2-0.3,1.2l0.5,0.2c-0.6,0.5-0.8,1.4-1.7,1.8l0.6,1.3
		c-1.6,0.5-1.3,2.4-0.8,3.7c-0.2,0.4-0.7,0.9-0.9,0.7l-0.2-0.6c-0.3,0.5-1.2,1-0.5,1.7c0,0.7-0.8,0.2-1.1,0.6
		c0.7,1.7-2.4,3.2-0.7,4.3c0.2-0.5,1-1.3,1.3-2.2c0.1,0.3,0.6,0.3,0.5,0.7c-0.3,1-1.2,1.2-1.3,2.2l-1.1-0.6
		C313.1,121.4,315.4,124,313.3,124.7z"/>
	<path class="st0" d="M312.5,127.5c-0.1,0.1-0.3,0.4-0.3,0.8C312.4,128.1,312.6,127.7,312.5,127.5z"/>
	<polygon class="st0" points="312.5,128.4 312.9,128.2 312.7,128.1 	"/>
	<path class="st0" d="M308.3,149.5l0.6,1.3c-0.4,0.1-0.1,1.5-0.7,1c0.8,0.8-0.2,2.2,1.1,1.8c-0.2-3.5,1.6-7.9,1.3-12l0.4,0.7
		c-0.6-2.3,1.7-2.5,0.2-4.6l1,0.5c0.5-0.8-1-2.1,0.4-2.8l-0.5,0l0.4-0.5l-0.2,0c-0.2-0.8,0-1.2,0.4-1.7c0.3,0,0,0.3,0.1,0.6
		c0.4-0.2-0.1-0.9,0-1.4c0.4-0.3,0.5,0.2,0.6,0.2c0-1.7,1.3-2,0.2-3.6c-0.2-0.2-0.7,0.2-0.6-0.4c-0.8,0.8-0.6,1.8-0.4,2.9l0.1-0.3
		c1.3,1.2-0.5,0.4-0.2,1.8c-0.5-0.5-0.4-1-0.6-1.3c-1.5,1,0.3,2.2-1.4,2.7l0-0.1c-0.2,0.2,0,0.6,0,1c0.2,0,0.4-0.3,0.6-0.5
		c0,0.4,0.7,0.7,0.9,0.9c-0.8,0.2,0.2,0.6-0.3,1c-0.7,0-0.4-0.6-0.7-0.9l0.2,0.8c-0.1,0.6-0.8,0.4-1.3,0.6c0.3,0.6,0.4-0.2,1,0.4
		c-1,0.4-1.5,3.3-1.1,4.9c0-0.5-0.6-0.3-0.4-0.9c-0.2,0.2,0,1,0.5,1.1c0.2,1-0.3,2.1-0.9,2.9l0.5-0.2c0.6,0.9-1,1.7-0.8,3.1l0,0
		c0,0.4,1.1,1,0.8,1.7C308.8,150,308.9,149.6,308.3,149.5z"/>
	<path class="st0" d="M308.8,154.3l-0.6-0.5c-0.2,0.5,0.6,1.1,1,1.1c-0.1-0.3,0.2-0.7-0.1-0.8C309,154.1,308.8,154.1,308.8,154.3z"
		/>
	<path class="st0" d="M308.2,163c0.2,0.2,0.4,0.1,0.6,0.2c0-1.8-0.2-4.2,0.4-4.8c0.3-0.6-0.7-0.8-0.9-1.6l0.7-0.3
		c-0.4-0.5,0.5-1.7-0.6-1.3c-0.1,0,0.5,0.4,0.2,0.8l-0.4-0.1l0,0.8l-0.4-0.3c-0.8,1.1,1.3,0.9,0.7,2.3l-1-0.1
		c-0.1,0.9,0.2,1.4-0.4,2.2c0,0,0.5,0,0.3-0.1c0.1-0.2,0.5-0.3,0.7-0.2c0.7,1.5-0.6-0.3-1,0.7c0.6,1.3,1.1,3.6,0.3,4.2
		c0.6-0.6,1.2,0.3,1.1,1c-0.4,0.3-0.6-0.2-0.9-0.3c-0.1,0.3-0.4,0.6-0.2,0.9c0.6-0.4,1.3-0.1,1.6,0.6C309.7,166,308,164.7,308.2,163
		z"/>
	<polygon class="st0" points="309,163.5 308.8,163.3 308.8,163.9 	"/>
	<path class="st0" d="M284.8,189.8C297.5,132.8,255.2,82,255.2,82l6.4-4.7C308.8,145.5,284.8,189.8,284.8,189.8z"/>
	<polygon class="st0" points="290.1,168.2 290.4,167.6 289.8,167.4 	"/>
	<path class="st0" d="M292.5,165.8l-0.2-1c-1.7,0.4-1.2-0.3-2.5,1.1c0.2,0.5,0.7,1.7,1.4,1.6c0-0.4-0.6-1-0.4-1.5
		c0.5,0.3,0.3,0.9,1,1.2c0.6-0.9-0.3-0.6,0-1.6L292.5,165.8z"/>
	<path class="st0" d="M290.8,164.5l0.8,0.2C291.4,164.6,291,164.1,290.8,164.5z"/>
	<path class="st0" d="M290.7,163.9c0.1-0.6,0.6,0,0.7,0l-1.1-0.7L290.7,163.9z"/>
	<path class="st0" d="M290.9,161.5l-0.1-0.3C290.6,161.3,290.7,161.4,290.9,161.5z"/>
	<path class="st0" d="M290.8,160.2c-0.4,0.2-0.2,0.5,0,0.9l0.1,0c0.3-0.3,1.1,0,0.9,0.6c0.2,0.6-0.6,0.5-0.1,1l0.7-0.7
		C292.2,161.1,291.1,160.6,290.8,160.2z"/>
	<path class="st0" d="M290.9,161.5l0,0.3C291,161.6,291,161.5,290.9,161.5z"/>
	<polygon class="st0" points="290.7,162.7 290.9,163 291.2,162.9 	"/>
	<path class="st0" d="M290.7,158.2c1.1,0.1-0.1,1.4,0.7,1.6c0-0.8,0.7-1.4,1.4-1.3l-0.4-0.9C292,157.4,291.2,157.8,290.7,158.2z"/>
	<path class="st0" d="M293.4,156.4l-0.2-0.2L293.4,156.4z"/>
	<path class="st0" d="M291.4,152l1.2,2c-0.4-0.2-0.7-0.1-0.8-0.6c-0.1,0.9,0.6,1,0.5,1.8c-1,0.3-0.1-1.3-1-0.9c0,0.5,0.1,1.3,1,1.7
		l-0.7,0.9l1.1-0.3c0.3-0.4-0.9-0.7-0.1-0.9c0.5-0.1,0.6,0.2,0.7,0.5c-0.2-0.5,0.8-1.6,0.6-2.7C293.7,152.3,292,152.7,291.4,152z"/>
	<polygon class="st0" points="292.6,151.8 293,151.7 292.5,151.8 	"/>
	<path class="st0" d="M291,149.7l0.8,1l-0.5,0.3c0.2-0.1,0.7,0.2,0.9,0.1c0.9-0.6-0.5-1.3-0.7-1.9c0.3-1.6,0.5,0,1.4-0.7
		c0,0.4-0.2,0.5-0.2,1.1c1-1-0.2-2.2-0.5-2.7c-0.1,0.2-0.4,0.3-0.3,0.6l-0.4-0.6C290.8,147.7,290.7,148.2,291,149.7z"/>
	<path class="st0" d="M291.2,151.6c-0.1-0.4-0.1-0.5,0.1-0.6C291,151.1,290.8,151.3,291.2,151.6z"/>
	<path class="st0" d="M292.1,146.6l0.1,0.3L292.1,146.6z"/>
	<path class="st0" d="M291,147.4l0-0.8l-0.4,0.3C290.7,147.1,290.8,147.4,291,147.4z"/>
	<path class="st0" d="M285.9,118.7c-0.4,0.2-0.5,0.5-0.2,1.1c-0.5,0.1-0.7-0.6-1.1-0.9c-0.1,0.8-0.6,0.2-1,0.6
		c0.2,0.8,1,0.9,1.2,1.9l-0.5,0.3c0.7,0.9,1.8,2.5,1.6,3.7c0.1,1.1,0.5,1.7,1.1,2.8c0.8,3.7,2.2,7.4,2.4,11.5l1.1,0.4
		c-0.5,0.3,0.2,1-0.5,1c0.1-0.2-0.1-0.4-0.1-0.7c-0.8,1,0.6,2.2,0.3,3.3c0.2-0.1,1.1-0.5,1.3-0.2c-1.2,0.1,0.2,1.2-1.1,1.7
		c-0.2,1.1,1-0.1,1,1c0.7,0,0.2-1.1,0.7-1.3c0.6,0.3-0.1,1,0.6,0.9c0.2-1.8-1.7-4.9-2.7-7.4l0.7,0.2c-0.7-1.3-1.2-3.4-0.3-4.7
		c-0.5,0.4-0.1-2.1-1.5-1.5c0.2-0.4,0.1-0.5,0.1-1l-0.5,0c-0.2-0.7,0.5-0.7,0.3-1.5c-0.4,0.7-0.8,0.1-1.3,0c0.4-1.1,0.7-2.2,1-3.2
		c-0.2,0.1-0.4,0.3-0.5,0.6c0.1-0.6-0.5-0.3-0.7-0.4c-0.2-0.5,0.6-0.7,1-0.8c0-1-1.6-1-1.3-1.9l-0.5,0.4c-0.4-0.9,0-1.9-0.6-2.9
		c0.6-0.8,1,0.6,1.5,1c0.1-0.3,0-0.7,0.2-1c-0.6-0.3-1.4-0.9-2-1.3C286.5,120.4,285.9,119.1,285.9,118.7z"/>
	<polygon class="st0" points="287.4,121.5 287.8,121.7 287.6,121.4 	"/>
	<path class="st0" d="M285.9,118.7L285.9,118.7C285.9,118.6,285.9,118.6,285.9,118.7z"/>
	<polygon class="st0" points="285.8,125.5 285.9,125.3 285.8,125.2 	"/>
	<path class="st0" d="M288.8,125.5l-0.4,1C288.6,126.3,288.8,126.2,288.8,125.5z"/>
	<path class="st0" d="M289.9,132.3c0.2,0.2,0.3,0,0.5,0.1C290.4,132,290.2,131.9,289.9,132.3z"/>
	<polygon class="st0" points="287.1,120.3 286.6,119.6 286.3,119.3 	"/>
	<path class="st0" d="M277.6,105.6c-0.4,1,0.5,1.8,0.7,2.7c1,1.4,1.6-0.5,2.3,1l-1.5,0.4c0.7,1.4,1.5,3.5,3.1,4.4
		c-0.1,0.2-0.2,0.5-0.6,0.2c0.4,1,2.2-0.3,2.2,1.3c-1.3-0.9-0.7,0.7-1.7,0.7L282,116c0.4,0.8,1.3,1.8,1.4,2.3
		c0.4-0.1,0.8-0.8,1.1-0.1c0-0.3,0.4-0.4,0.8-0.5c-0.7-0.6-0.6-1.2-1.3-1.4c0.3-0.6,0.3,0.2,0.6-0.4l-0.7-0.5
		c-0.1-0.5,0.7,0.3,0.5-0.5c-0.3,0-0.8-0.4-1-1l0.2,0.1c-0.3-0.4-0.3-1.1-1-0.5l0.6-0.8l-0.5,0.3c-0.2-1.3,0.8-2.2-0.5-3.4
		c0,0.4-0.4,0.2-0.6,0.1c-0.1,0.8,0.7,0.6,1.1,1.1c-0.5,0.3-1.6-0.4-1.6,0.4c0.3-1-0.7-1.4,0.4-2.3c-0.3-1-1.1-1-1.3-2.1l0.2-0.1
		c-0.9,0.2,0-1-1.2-1.2l0,0.6c-0.4,0.1-0.5-0.1-0.7-0.4c0.2,0,0.2,0,0.3-0.2c-0.7,0.2-1.3-0.8-1.5-0.9c0.1,0.5,0.9,0.8,1.3,1.3
		C278.2,105.7,277.7,106.1,277.6,105.6z"/>
	<path class="st0" d="M278.2,125.3c0.5,0.7,1.1,1.6,1.9,1.9l-0.4,0.1c0.3,0.3,1.4,1.5,1.7,0.4l-0.4-0.1c-0.9-0.8,0.4-0.9,0.3-1.8
		c-0.5-0.9-2-0.9-2-1.8c-0.2-0.3,0.2-0.4,0.5-0.4c-0.2-0.9-1.3-0.8-1.7-1.3c2.6-1.3-1.8-2.1-0.5-4c-0.5-0.7-0.7-1.7-1.6-2.4
		c0.9,0.2-0.3-0.9,0.5-1c-1.6,0.4-0.5-3-2.6-2.3c-0.1-1.5-0.2,0-0.4-1.6c0.2-0.1,0.3,0.1,0.4,0.2c0.1-0.8-1.2-0.5-0.6-1.4
		c-0.4-1.2-0.6,0.1-1.5-0.4c-0.4-1.3,0.1-1.1,0.5-2.2c-1,0.4-0.9-0.6-1.7-0.9c0,0.2,0.3,1.1-0.3,0.7c-0.6-1.4-1.2-0.8-2.1-1.9
		c0.6-1.2,0.7,1.2,0.9-0.3c0.9,0.6,1.2,1.2,2.1,1.2c-0.5-1.1-1.4-2.3-2.5-3.3c-0.2-0.7,0.6,0.1,0.5-0.5c-0.2-1.4-2-1.2-2.1-2.4
		l0.6-0.1c-1-0.2-1.1-2.1-2-3c-0.2,0.3-0.3,0.5-0.5,0.4c1.2-0.7-1.5-1.1-1.3-2.6c-0.7,0.6-1.8-0.1-2.3-0.7c0.1-0.4,0.4-0.5,0.6-0.6
		c0.2,1.3,1.5,0.5,2.4,1c-0.8-0.4-1.1-1.8-2.1-2l0.8-0.2c-0.5-1-1.9,0.1-2-1.3l0.5-0.2c-1.4-1.9-2.2-4.7-4.3-5.5
		c-0.5,0.1-0.7,1.5-1,1.7c1,0.7,2,0.7,2.8,1.2l-0.7,0.5c0.6-0.2,1.4,0.5,1.5-0.2c0.8,0.3-0.3,0.9,0.5,1.2c-0.8,0.4-1.1,0.1-1.7,0.5
		l0.7,0.3c-0.4,0,0,0.5-0.4,0.5c1.6,0.5,0.6,1.7,1.8,2.6l-0.3-0.7c0.4-0.3,0.6,0.1,0.9,0.3c-0.4,0.7-0.2,0.8-0.1,1.5
		c0.6,0.3,1.6,0.1,2,0.8c-0.9,0.3,0.3,1.4-0.3,1.9c0.9-0.3,1.1,1.1,1.6,1c0.4,0.3,0.6,0.8,0.2,1.1l-0.3-0.2l0.2,0.4l-0.2,0
		c0.2,0.3,0.7,0,0.6,0.6c-0.2,0.1-0.3-0.1-0.5-0.2c0.4,0.9,2.1,0.8,1.8,2c0.5-0.1,1,0.9,1.8,0.2c-0.1,0.4-0.9,0.7-0.4,1.4
		c1,0,0.2,1,1,1.3c-1.2-0.3-0.2,0.1-1.3-0.2c0,0.7,1.4,0.9,1.7,1.9l-0.5,0.5c0.4,0.2,1.2,0.3,0.8,0.9l0.5-0.3
		c0.1,0.7,0.6,1.5,0.4,2.5l1.4,0.3c-0.6,1.6,1.1,2.5,2.4,2.9c0.1,0.4,0.2,1.1,0,1.2l-0.6-0.2c0.2,0.6-0.1,1.5,0.9,1.5
		c0.5,0.5-0.4,0.7-0.4,1.2c1.7,0.7,0.6,3.9,2.6,3.5c-0.2-0.5-0.2-1.6-0.7-2.5c0.3,0.2,0.6-0.2,0.8,0.1c0.5,0.9,0,1.7,0.7,2.5
		l-1.2,0.4C276.1,122.9,279.4,123.3,278.2,125.3z"/>
	<path class="st0" d="M279.4,127.9c0,0.2,0,0.5,0.3,0.8C279.7,128.5,279.6,128,279.4,127.9z"/>
	<polygon class="st0" points="280,128.6 280.1,128.2 279.9,128.2 	"/>
	<path class="st0" d="M286.4,149.2l0.9,1.1c-0.4,0.3,0.3,1.5-0.4,1.2c1,0.6,0.3,2.2,1.5,1.5c-0.7-3.5-1-8.4-3-12.1l0.6,0.5
		c-1.4-1.8,0.5-3.1-2-4.2l1.1-0.1c0-1-2-1.4-1.2-2.6l-0.4,0.2l0-0.7l-0.2,0.2c-0.6-0.6-0.7-1-0.6-1.7c0.3-0.1,0.2,0.3,0.4,0.5
		c0.2-0.4-0.6-0.7-0.7-1.2c0.2-0.5,0.5-0.1,0.6-0.1c-0.9-1.4-0.1-2.5-2-3c-0.3,0-0.4,0.6-0.7,0.1c-0.1,1.2,0.8,1.8,1.5,2.6l-0.1-0.3
		c1.7,0.3-0.2,0.7,0.8,1.7c-0.7-0.1-0.8-0.6-1.2-0.8c-0.7,1.7,1.4,1.7,0.2,3l-0.1-0.1c-0.1,0.2,0.3,0.5,0.5,0.8
		c0.2-0.2,0.2-0.5,0.3-0.7c0.2,0.3,0.9,0.3,1.2,0.3c-0.6,0.5,0.5,0.4,0.3,1c-0.6,0.4-0.7-0.3-1.1-0.4l0.6,0.6
		c0.2,0.6-0.5,0.8-0.7,1.2c0.6,0.4,0.2-0.4,1-0.1c-0.5,0.9,0.4,3.6,1.2,4.9c-0.2-0.5-0.7,0-0.7-0.6c-0.1,0.2,0.4,0.9,0.9,0.8
		c0.6,0.9,0.6,2.1,0.3,3.1l0.4-0.4c1,0.6-0.2,2,0.5,3.2l0,0c0.2,0.4,1.4,0.6,1.3,1.4C287,149.5,287,149.1,286.4,149.2z"/>
	<path class="st0" d="M288.1,153.8l-0.7-0.4c-0.1,0.5,0.9,1,1.3,0.8c-0.2-0.3,0.1-0.8-0.3-0.8C288.3,153.6,288,153.6,288.1,153.8z"
		/>
	<path class="st0" d="M289,162.9c0.2,0.2,0.4,0.1,0.6,0.2c-0.2-1.9-0.5-4.3-0.1-5.1c0.1-0.7-0.9-0.7-1.3-1.5l0.6-0.4
		c-0.5-0.4,0.1-1.8-1-1.2c-0.1,0.1,0.6,0.3,0.4,0.7l-0.4,0l0.2,0.8l-0.5-0.2c-0.5,1.2,1.5,0.7,1.3,2.2l-1,0.1c0,1,0.3,1.4-0.2,2.3
		c0,0,0.5,0,0.3-0.2c0-0.2,0.4-0.4,0.7-0.3c0.8,1.4-0.6-0.2-0.9,0.9c0.7,1.2,1.4,3.6,0.6,4.3c0.6-0.6,1.2,0.3,1.2,1
		c-0.3,0.3-0.6-0.2-0.9-0.3c-0.1,0.3-0.3,0.6-0.2,0.9c0.5-0.4,1.3-0.2,1.6,0.6C290.8,165.8,289,164.5,289,162.9z"/>
	<polygon class="st0" points="289.8,163.3 289.6,163 289.7,163.7 	"/>
	<path class="st0" d="M303.3,97.6c-1.9-3.8-6.5-5.3-10.3-3.3c-3.8,1.9-5.3,6.6-3.3,10.3c1.9,3.8,6.5,5.3,10.3,3.3
		C303.7,106,305.2,101.4,303.3,97.6z"/>
	<path class="st1" d="M129.7,264.9h3.7v11.4h0.1c0.6-0.9,1.5-1.8,2.6-2.3c1.1-0.6,2.4-0.9,3.7-0.9c2.7,0,7,1.5,7,7.8v10.9h-3.7
		v-10.5c0-3-1.2-5.4-4.7-5.4c-2.4,0-4.2,1.5-4.9,3.3c-0.2,0.5-0.3,0.9-0.3,1.6v11h-3.7V264.9z"/>
	<path class="st1" d="M160.9,292.1c-5.4,0-9.6-3.6-9.6-9.4c0-6.1,4.4-9.7,10-9.7c5.8,0,9.7,3.8,9.7,9.4
		C170.9,289.2,165.8,292.1,160.9,292.1L160.9,292.1z M161.1,289.7c3.5,0,6.1-3,6.1-7.1c0-3.1-1.7-7-6-7c-4.3,0-6.2,3.6-6.2,7.1
		C155,286.6,157.5,289.7,161.1,289.7L161.1,289.7z"/>
	<path class="st1" d="M180,269.1v4.4h5.2v2.5H180v9.9c0,2.3,0.7,3.6,2.7,3.6c1,0,1.6-0.1,2.1-0.2l0.2,2.5c-0.7,0.2-1.8,0.5-3.2,0.5
		c-1.7,0-3.1-0.5-4-1.4c-1-1-1.4-2.6-1.4-4.8v-10h-3.1v-2.5h3.1v-3.4L180,269.1z"/>
	<path class="st1" d="M202.5,269.1v4.4h5.2v2.5h-5.2v9.9c0,2.3,0.7,3.6,2.7,3.6c1,0,1.6-0.1,2.1-0.2l0.2,2.5
		c-0.7,0.2-1.8,0.5-3.2,0.5c-1.7,0-3.1-0.5-3.9-1.4c-1-1-1.4-2.6-1.4-4.8v-10h-3.1v-2.5h3.1v-3.4L202.5,269.1z"/>
	<path class="st1" d="M228.7,286.7c0,1.9,0,3.6,0.2,5h-3.2l-0.2-3h-0.1c-0.9,1.5-3.1,3.4-6.7,3.4c-3.2,0-6.9-1.6-6.9-8v-10.7h3.7
		v10.1c0,3.5,1.2,5.9,4.5,5.9c2.5,0,4.2-1.5,4.8-3.1c0.2-0.4,0.3-1.1,0.3-1.7v-11.2h3.7V286.7z"/>
	<path class="st1" d="M234.8,264.9h3.7v11.5h0.1c1.3-2,3.6-3.3,6.9-3.3c5,0,8.5,3.8,8.5,9.3c0,6.6-4.6,9.8-9.1,9.8
		c-2.9,0-5.2-1-6.7-3.4H238l-0.2,3h-3.2c0.1-1.2,0.2-3.1,0.2-4.7V264.9z M238.5,284.4c0,0.4,0,0.8,0.1,1.2c0.7,2.3,2.9,3.9,5.5,3.9
		c3.9,0,6.1-2.8,6.1-7c0-3.7-2.1-6.8-6-6.8c-2.5,0-4.8,1.6-5.5,4.1c-0.1,0.4-0.2,0.9-0.2,1.4V284.4z"/>
	<path class="st1" d="M258,288.4c1.1,0.6,3,1.3,4.9,1.3c2.6,0,3.9-1.2,3.9-2.7c0-1.6-1-2.5-3.7-3.4c-3.7-1.2-5.4-3-5.4-5.2
		c0-2.9,2.7-5.4,6.9-5.4c2,0,3.8,0.5,4.9,1.1l-0.9,2.4c-0.8-0.4-2.2-1.1-4.1-1.1c-2.2,0-3.3,1.1-3.3,2.5c0,1.6,1.2,2.2,3.8,3.1
		c3.4,1.2,5.3,2.8,5.3,5.5c0,3.2-2.8,5.5-7.5,5.5c-2.2,0-4.2-0.5-5.7-1.3L258,288.4z"/>
	<path class="st1" d="M281.6,286.5c-1.8,0-3.2-1.3-3.2-3.1c0-1.8,1.4-3.1,3.3-3.1c1.9,0,3.2,1.3,3.2,3.1
		C284.9,285.2,283.6,286.5,281.6,286.5L281.6,286.5z"/>
	<path class="st1" d="M297.6,288.4c1.1,0.6,3,1.3,4.9,1.3c2.6,0,3.9-1.2,3.9-2.7c0-1.6-1-2.5-3.7-3.4c-3.7-1.2-5.4-3-5.4-5.2
		c0-2.9,2.7-5.4,6.9-5.4c2,0,3.8,0.5,4.9,1.1l-0.9,2.4c-0.8-0.4-2.2-1.1-4.1-1.1c-2.2,0-3.3,1.1-3.3,2.5c0,1.6,1.2,2.2,3.8,3.1
		c3.4,1.2,5.3,2.8,5.3,5.5c0,3.2-2.8,5.5-7.5,5.5c-2.2,0-4.2-0.5-5.7-1.3L297.6,288.4z"/>
	<path class="st1" d="M316,273.4l2.7,9.3c0.5,2,1.1,4,1.5,5.9h0.1c0.5-1.9,1.1-3.8,1.8-5.8l3.3-9.3h3.1l3.1,9.1
		c0.7,2.2,1.3,4.1,1.8,6h0.1c0.3-1.9,0.9-3.8,1.5-5.9l2.9-9.2h3.6l-6.5,18.3h-3.3l-3.1-8.7c-0.7-2.1-1.3-3.9-1.8-6h-0.1
		c-0.5,2.2-1.1,4.1-1.8,6.1l-3.2,8.7h-3.3l-6.1-18.3H316z"/>
	<path class="st1" d="M346.9,270.1c-1.4,0-2.3-1-2.3-2.2c0-1.2,1-2.1,2.4-2.1c1.4,0,2.3,0.9,2.3,2.1
		C349.3,269.1,348.4,270.1,346.9,270.1L346.9,270.1z M345.1,291.7v-18.3h3.7v18.3H345.1z"/>
	<path class="st1" d="M354.9,278.4c0-1.9-0.1-3.4-0.2-4.9h3.2l0.2,2.9h0.1c1.1-1.7,3-3.4,6.4-3.4c2.7,0,4.8,1.5,5.7,3.7h0.1
		c0.6-1.1,1.5-1.8,2.3-2.4c1.2-0.8,2.5-1.3,4.4-1.3c2.7,0,6.7,1.6,6.7,7.9v10.8h-3.6v-10.4c0-3.6-1.5-5.6-4.4-5.6
		c-2.1,0-3.7,1.4-4.4,3c-0.2,0.5-0.3,1.1-0.3,1.7v11.3h-3.6v-11c0-2.9-1.4-5-4.2-5c-2.2,0-4,1.7-4.5,3.3c-0.2,0.5-0.3,1.1-0.3,1.6
		v11h-3.6V278.4z"/>
	<path class="st1" d="M397.9,288.4c1.1,0.6,3,1.3,4.9,1.3c2.6,0,3.9-1.2,3.9-2.7c0-1.6-1-2.5-3.7-3.4c-3.7-1.2-5.4-3-5.4-5.2
		c0-2.9,2.7-5.4,6.9-5.4c2,0,3.8,0.5,4.9,1.1l-0.9,2.4c-0.8-0.4-2.2-1.1-4.1-1.1c-2.2,0-3.3,1.1-3.3,2.5c0,1.6,1.2,2.2,3.8,3.1
		c3.4,1.2,5.3,2.8,5.3,5.5c0,3.2-2.8,5.5-7.5,5.5c-2.2,0-4.2-0.5-5.6-1.3L397.9,288.4z"/>
	<path class="st1" d="M414.8,279.4c0-2.3,0-4.2-0.2-6h3.3l0.2,3.1h0.1c1.5-2.3,3.9-3.6,7.1-3.6c4.9,0,8.6,3.7,8.6,9.3
		c0,6.6-4.4,9.8-9.1,9.8c-2.7,0-5-1.1-6.2-2.9h-0.1v9.9h-3.7V279.4z M418.5,284.3c0,0.5,0,0.9,0.2,1.4c0.6,2.3,2.9,3.9,5.4,3.9
		c3.9,0,6.1-2.9,6.1-7.1c0-3.7-2.1-6.8-5.9-6.8c-2.5,0-4.9,1.6-5.6,4.1c-0.1,0.5-0.2,0.9-0.2,1.4V284.3z"/>
	<path class="st1" d="M452.6,287.3c0,1.6,0.1,3.1,0.3,4.4h-3.3l-0.3-2.3h-0.1c-1.1,1.4-3.3,2.7-6.2,2.7c-4.1,0-6.2-2.6-6.2-5.2
		c0-4.4,4.3-6.8,12.1-6.8v-0.4c0-1.5-0.5-4.3-4.6-4.2c-1.9,0-3.9,0.5-5.3,1.4l-0.8-2.2c1.7-0.9,4.1-1.6,6.7-1.6
		c6.2,0,7.7,3.8,7.7,7.5V287.3z M449.1,282.4c-4-0.1-8.5,0.6-8.5,4.1c0,2.2,1.6,3.2,3.4,3.2c2.7,0,4.4-1.5,4.9-3.1
		c0.1-0.3,0.2-0.7,0.2-1.1V282.4z"/>
	<path class="st1" d="M458,288.4c1.1,0.6,3,1.3,4.9,1.3c2.6,0,3.9-1.2,3.9-2.7c0-1.6-1-2.5-3.7-3.4c-3.7-1.2-5.4-3-5.4-5.2
		c0-2.9,2.7-5.4,6.9-5.4c2,0,3.8,0.5,4.9,1.1l-0.9,2.4c-0.8-0.4-2.2-1.1-4.1-1.1c-2.2,0-3.3,1.1-3.3,2.5c0,1.6,1.2,2.2,3.8,3.1
		c3.5,1.2,5.3,2.8,5.3,5.5c0,3.2-2.8,5.5-7.5,5.5c-2.2,0-4.2-0.5-5.7-1.3L458,288.4z"/>
</g>
</svg>
